<svg xmlns="http://www.w3.org/2000/svg" viewBox="0 0 720 520">
  <rect width="720" height="520" rx="36" fill="#1b1007"/>
  <path d="M376 116c0-34 28-62 62-62h138c34 0 62 28 62 62v68c0 34-28 62-62 62h-54l-62 54v-54h-22c-34 0-62-28-62-62v-68Z" fill="#fb923c" opacity=".25" stroke="#fdba74" stroke-width="5"/>
  <circle cx="188" cy="292" r="44" fill="#fdba74" opacity=".78"/>
  <circle cx="278" cy="292" r="44" fill="#fb923c" opacity=".78"/>
  <circle cx="368" cy="292" r="44" fill="#94a3b8" opacity=".78"/>
  <path d="M102 420c22-54 150-54 172 0M192 420c22-54 150-54 172 0M282 420c22-54 150-54 172 0" fill="none" stroke="#f8fafc" stroke-opacity=".38" stroke-width="12" stroke-linecap="round"/>
</svg>
